PathFileType	4	(X/Y/Z)	C:/Users/beibeiliu/ov580/test_trc/User3\sequence.51_training_dense_left.trc
DataRate	CameraRate	NumFrames	NumMarkers	Units	OrigDataRate	OrigDataStartFrame	OrigNumFrames
120	120	21	19	mm	120	26	100
Frame#	Time	ThumbCMC			ThumbMCP			ThumbIP			ThumbTip			IndexMCP			IndexPIP			IndexTip			MiddleMCP			MiddlePIP			MiddleTip			RingMCP			RingPIP			RingTip			PinkyMCP			PinkyPIP			PinkyTip			BackHand1			BackHand2			BackHand3	
		X0	Y0	Z0	X1	Y1	Z1	X2	Y2	Z2	X3	Y3	Z3	X4	Y4	Z4	X5	Y5	Z5	X6	Y6	Z6	X7	Y7	Z7	X8	Y8	Z8	X9	Y9	Z9	X10	Y10	Z10	X11	Y11	Z11	X12	Y12	Z12	X13	Y13	Z13	X14	Y14	Z14	X15	Y15	Z15	X16	Y16	Z16	X17	Y17	Z17	X18	Y18	Z18	
25	0.208333	-164.192	-39.4885	66.7486	-180.777	-31.458	40.836	-191.641	-26.353	12.218	-195.147	-18.4868	-8.61242	-140.967	-63.4347	-8.31162	-142.866	-57.4828	-38.4941	-139.881	-38.4504	-59.8226	-113.388	-63.1725	-10.0742	-106.996	-47.6633	-38.5351	-98.6647	-12.4742	-47.7951	-90.8351	-48.3449	2.74261	-83.7766	-22.3094	-14.651	-86.4283	9.50493	-9.06007	-80.1711	-36.5292	19.7816	-77.563	-12.067	11.7108	-87.5025	12.1003	15.4983	-106.458	-71.4476	57.0852	-115.188	-71.4835	82.1259	-141.089	-67.4833	62.3803	
26	0.216667	-168.679	-39.2517	68.0817	-180.615	-30.433	42.3605	-186.686	-24.6251	15.9316	-185.699	-15.9256	-5.84045	-147.279	-56.5308	-3.33102	-140.193	-45.5885	-33.4841	-135.943	-16.6164	-40.7437	-114.404	-57.4493	-7.62066	-112.275	-35.6266	-30.4173	-109.031	1.0973	-23.5534	-99.7955	-47.1171	2.80157	-92.9779	-18.2166	-9.41912	-100.144	10.0865	7.25539	-81.1683	-39.8891	23.7252	-84.2385	-12.9591	14.0904	-93.0431	9.8505	24.4363	-108.053	-71.6173	54.3559	-113.866	-73.6028	88.5215	-145.106	-67.3385	63.6619	
27	0.225	-166.126	-39.4787	71.6053	-183.323	-28.9803	48.0126	-191.997	-23.7994	16.3612	-191.025	-14.2226	-5.993	-144.44	-50.6866	-2.47027	-140.85	-24.2497	-27.2237	-131.395	1.53979	-13.1996	-122.95	-55.3053	-9.28008	-112.105	-30.4998	-27.4257	-113.722	6.52696	-8.5727	-101.553	-53.6777	4.11505	-94.4303	-23.8911	-10.1556	-97.2596	0.934521	6.0147	-83.0276	-47.783	21.345	-83.388	-24.3738	10.5058	-93.2185	0.597483	24.8757	-116.825	-73.264	55.6114	-116.488	-74.4492	87.4468	-146.428	-68.4774	62.6172	
28	0.233333	-170.949	-40.2939	69.5377	-181.362	-30.0055	49.2546	-191.162	-22.1553	20.4069	-188.998	-13.345	-1.52527	-145.912	-46.1997	-5.43201	-138.105	-18.787	-19.3515	-131.865	6.97764	5.81313	-127.844	-61.0047	-6.35806	-117.691	-36.8323	-32.1452	-110.758	-4.66712	-21.7235	-105.854	-58.5231	0.187199	-98.3329	-34.5494	-18.5396	-97.4954	-6.05675	-8.83722	-89.1424	-52.8066	18.4129	-83.083	-26.3462	6.97105	-91.0168	-1.06644	18.1478	-115.192	-78.5573	52.0003	-120.499	-77.3057	87.2453	-149.443	-71.4246	65.1935	
29	0.241667	-170.373	-41.1096	71.8728	-181.612	-30.9845	45.8741	-195.165	-19.9446	20.4887	-188.958	-9.20241	-3.37262	-145.429	-51.5506	-4.1714	-141.256	-22.5125	-22.2385	-138.213	4.42446	0.0558062	-123.063	-68.7928	-7.84122	-117.014	-50.8774	-35.2887	-110.629	-12.398	-40.6301	-105.776	-60.3924	1.21868	-96.9921	-39.5409	-19.0428	-91.8562	-9.38011	-16.7981	-90.5474	-50.2285	18.5416	-85.6736	-23.3796	7.67819	-95.1428	0.684861	18.081	-119.269	-77.8314	55.6818	-120.266	-76.3117	84.2396	-150.456	-72.5827	65.1959	
30	0.25	-167.899	-44.3798	66.5494	-185.784	-30.2342	42.7294	-188.13	-17.3886	20.1791	-180.364	-5.90712	-4.05544	-148.439	-58.1922	-9.48171	-140.849	-38.4644	-29.879	-135.753	-3.61601	-18.3012	-120.601	-70.8508	-4.15613	-112.901	-58.4956	-35.9994	-106.719	-27.2869	-49.6115	-102.037	-57.9019	0.250354	-92.8214	-33.1102	-16.2733	-98.6173	-2.88882	-13.1583	-88.3238	-42.8228	19.3264	-88.0156	-18.0582	15.3161	-101.947	7.46755	29.5121	-111.548	-80.0586	53.0728	-116.506	-76.838	85.7338	-146.424	-75.0898	63.5251	
31	0.258333	-169.452	-43.7346	68.2182	-185.153	-26.222	43.0311	-185.63	-14.3976	19.6097	-178.453	-0.248082	-4.11935	-144.931	-64.4274	-7.07367	-144.85	-49.5762	-33.5407	-140.344	-16.0828	-34.6573	-120.327	-70.3379	-8.11529	-113.196	-55.0608	-35.6412	-109.689	-19.367	-46.137	-99.4727	-52.9474	4.9946	-95.9193	-28.7892	-10.8877	-103.08	2.19126	2.41651	-87.0084	-39.9533	24.3108	-91.0802	-10.0422	23.0141	-104.596	4.14419	39.8141	-112.066	-78.1091	54.5655	-118.521	-74.7369	86.7798	-149.745	-72.8685	61.8311	
32	0.266667	-169.905	-43.7555	67.4459	-182.254	-27.0328	44.5879	-186.075	-11.7364	18.5865	-171.506	-0.896465	-1.59348	-148.199	-66.1154	-0.582487	-142.156	-54.9129	-32.8786	-137.04	-22.928	-36.2256	-118.815	-66.2039	-4.1688	-111.887	-46.6144	-31.5549	-114.895	-8.61169	-21.0013	-103	-49.1664	5.73712	-97.2593	-20.2739	-2.49047	-108.958	-0.377065	22.2549	-87.2258	-36.7457	25.8134	-97.2775	-10.6797	27.7234	-111.972	-4.21536	53.9553	-111.285	-78.1234	54.1728	-119.193	-75.5351	87.2267	-144.269	-73.0548	64.6028	
33	0.275	-174.19	-43.1367	69.1836	-183.813	-26.1111	43.4563	-184.06	-11.4042	14.6052	-171.414	-1.25163	-0.668538	-145.013	-63.4758	-1.39814	-139.088	-49.1683	-31.2203	-136.869	-16.651	-22.4287	-122.555	-56.5334	-8.12608	-115.371	-29.0627	-22.0978	-121.385	-6.13124	8.18315	-105.471	-43.1228	6.1162	-101.457	-14.9867	7.88465	-115.123	-9.53072	39.8842	-88.7367	-35.6203	23.5524	-98.5182	-12.7936	32.1789	-109.207	-12.6746	59.7769	-117.859	-78.9792	52.2514	-121.248	-78.9758	82.1686	-148.306	-75.1334	62.3388	
34	0.283333	-174.431	-39.8692	71.8067	-186.806	-22.3805	47.5092	-186.847	-10.9642	20.8668	-174.071	-2.36272	-0.873544	-151.98	-54.265	-2.01092	-141.132	-28.0175	-23.0038	-139.848	-8.62942	-1.01522	-128.398	-45.4863	-6.96551	-119.85	-13.9242	-5.73913	-128.514	-13.5567	33.4201	-108.406	-43.0019	8.23117	-107.951	-11.2561	14.8961	-119.394	-17.3031	46.9952	-92.868	-43.4759	25.3708	-99.5411	-14.6158	32.731	-113.415	-21.3306	58.5458	-124.508	-78.8595	52.0109	-126.581	-79.1659	86.0238	-152.999	-72.2169	63.1302	
35	0.291667	-179.281	-34.6943	75.9021	-190.355	-23.2151	47.0686	-192.841	-13.6388	22.8247	-183.963	-4.70043	-0.273109	-158.182	-43.4046	-2.91055	-149.47	-10.5085	-10.9814	-147.831	-4.22652	17.985	-130.946	-41.7977	-4.69247	-126.812	-9.98894	-0.811977	-134.402	-12.3209	37.5952	-114.223	-43.5734	7.1043	-110.31	-12.1878	13.628	-121.62	-15.6114	42.8894	-98.2774	-42.8402	18.6986	-101.666	-15.8209	27.6503	-110.523	-19.7642	53.9979	-128.605	-78.7328	51.2174	-130.579	-78.801	84.8729	-159.013	-66.7358	66.6447	
36	0.3	-183.575	-33.4552	77.8523	-194.959	-24.4251	50.7741	-202.294	-15.8235	26.6845	-203.027	-6.39281	0.100888	-160.3	-40.1209	0.056051	-150.921	-10.991	-8.27391	-148.097	-3.10645	24.5979	-141.91	-49.1323	-4.21873	-134.296	-18.0936	-12.5765	-131.183	-9.19433	26.1938	-122.983	-53.0401	6.01193	-114.791	-24.7721	-1.9464	-124.493	-13.8271	32.3361	-106.747	-50.1688	16.3849	-104.966	-24.4584	14.8034	-111.725	-16.033	44.1893	-132.77	-77.8086	56.7943	-136.211	-77.5899	85.1662	-163.988	-65.3492	68.3442	
37	0.308333	-184.097	-30.7775	77.5999	-199.442	-20.8587	52.6237	-208.043	-10.9895	30.9468	-211.374	-2.1497	5.49936	-167.749	-39.4293	-2.57419	-157.441	-11.0782	-10.6789	-152.373	1.77727	19.087	-151.341	-59.5841	-2.95848	-142.342	-34.8376	-24.6868	-131.014	-9.15268	0.97747	-131.833	-64.5295	4.59199	-124.387	-38.6218	-15.7255	-118.807	-14.0597	9.53601	-112.287	-63.7812	19.4205	-104.467	-40.6934	2.21927	-109.956	-16.442	15.5314	-143.713	-75.8645	59.6464	-137.901	-77.7174	87.4416	-172.79	-62.7741	68.4724	
38	0.316667	-179.871	-21.0852	78.3347	-196.893	-1.7665	57.5455	-204.893	9.67398	31.8648	-200.496	16.7804	10.4015	-179.504	-37.4993	1.33274	-168.223	-11.0092	-19.193	-147.32	6.53592	-2.16528	-169.369	-59.1071	-2.88596	-158.303	-45.8162	-33.1971	-134.623	-13.6736	-31.645	-149.119	-67.5181	1.67034	-139.032	-56.1328	-25.4409	-122.966	-27.3019	-25.9639	-123.849	-69.417	13.3802	-111.428	-58.8777	-7.98557	-103.851	-27.4275	-11.0014	-148.102	-73.4043	57.4878	-147.758	-71.6633	84.9728	-177.493	-54.803	70.7013	
39	0.325	-167.867	-5.29785	78.923	-173.873	16.2937	59.1487	-179.188	33.7344	30.341	-174.635	40.5166	4.71235	-181.889	-22.5741	-0.688131	-172.69	-7.11859	-22.5888	-143.94	12.7522	-20.3507	-175.879	-49.14	-4.42388	-169.677	-38.2224	-34.5242	-147.609	-20.3913	-50.4173	-160.471	-58.0462	2.94612	-152.043	-53.3121	-27.0192	-130.016	-34.9286	-43.4877	-134.526	-68.9456	9.69545	-124.507	-63.1879	-12.6858	-109.757	-43.1064	-26.5033	-159.516	-64.0735	57.5708	-149.947	-65.3748	84.3637	-176.185	-37.6316	74.5566	
40	0.333333	-146.111	15.862	79.7764	-141.518	33.2507	55.8007	-138.79	49.3201	30.2353	-132.014	54.41	5.8109	-175.687	-0.137855	3.97584	-164.652	12.6562	-20.893	-137.522	17.9383	-31.4631	-177.884	-23.7353	0.443904	-175.149	-16.6437	-29.1955	-153.799	-2.82075	-54.8012	-165.099	-41.2539	4.28292	-162.589	-36.5368	-24.1858	-141.742	-25.8917	-48.0072	-147.342	-56.0579	13.3565	-138.82	-57.0044	-11.7534	-126.81	-46.2853	-32.5108	-162.718	-50.4702	55.6949	-154.22	-51.9235	86.2307	-168.407	-19.8091	76.7174	
41	0.341667	-114.842	23.3743	82.8125	-101.091	32.5982	58.9157	-91.8469	47.5838	27.6311	-88.3008	45.4789	4.214	-154.069	28.9716	14.5982	-147.549	36.3898	-13.4186	-125.191	31.2567	-32.8863	-168.586	6.94671	6.52788	-166.642	14.3576	-22.9325	-148.738	12.8323	-52.6208	-164.246	-15.3607	10.3905	-162.395	-7.67641	-17.5467	-146.74	-6.42282	-43.6912	-155.261	-38.0492	15.0909	-150.885	-35.4916	-9.16388	-138.781	-34.1493	-33.8506	-160.704	-24.0139	62.1363	-152.367	-29.4341	90.0695	-149.786	5.09626	83.1227	
42	0.35	-86.3529	17.7696	83.0505	-66.619	25.0898	60.0516	-60.2565	28.0408	28.6756	-55.7003	25.6184	7.6557	-120.875	48.5417	23.4774	-114.003	53.286	-8.71406	-97.5692	44.2605	-32.6076	-144.832	33.6966	13.7041	-144.679	39.3418	-15.3306	-128.44	37.8117	-48.4672	-149.961	10.6726	17.5797	-151.42	14.8205	-12.5526	-140.056	15.079	-38.4197	-152.626	-12.7612	22.5817	-151.962	-8.3472	-1.67	-146.105	-7.5789	-25.372	-147.253	-1.48506	70.7447	-142.369	-12.8922	96.2316	-125.061	17.987	88.3821	
43	0.358333	-63.4119	7.65646	87.2439	-48.0085	6.58221	60.298	-36.6687	6.35407	33.8621	-34.9639	3.27102	5.44357	-91.7141	49.9449	25.2972	-80.9924	58.4839	0.0534914	-74.2377	50.0524	-26.4291	-116.884	44.6723	23.1708	-112.986	57.4196	-8.9833	-107.314	51.797	-39.6828	-129.111	30.8815	21.9826	-131.697	37.1887	-1.22391	-129.05	34.4713	-32.2725	-139.258	11.0739	29.9143	-143.89	14.9948	8.26873	-143.327	17.5515	-13.8919	-128.113	15.8984	73.4714	-131.01	-0.0896003	100.838	-98.6412	23.1016	93.0665	
44	0.366667	-54.8999	-7.47357	87.9713	-33.3274	-13.8372	60.4594	-22.9195	-15.2276	28.8726	-26.6177	-19.11	7.5411	-64.8295	39.4423	25.634	-58.7665	45.1339	-1.58199	-56.0831	36.5019	-31.1123	-89.399	44.6084	25.0045	-89.2453	55.0211	-3.46141	-84.4579	55.6397	-38.5393	-111.1	36.948	24.216	-112.247	45.4253	3.41814	-113.801	46.7284	-27.6019	-126.368	18.1809	38.2769	-132.565	29.9071	13.292	-131.473	37.0638	-9.54095	-110.822	19.6683	76.5424	-111.216	9.30297	102.487	-77.899	21.8512	90.0174	
45	0.375	-49.0356	-18.5649	84.8626	-31.564	-26.9019	58.4613	-23.4814	-32.3147	33.9896	-18.8531	-37.183	13.1749	-54.5922	23.6617	18.5078	-49.1043	22.5722	-10.3877	-50.0788	15.3153	-35.9098	-76.2953	37.5437	17.9364	-76.3966	45.9945	-11.4229	-71.9018	48.5535	-39.8296	-95.799	33.6807	26.1299	-98.3331	43.5043	3.99748	-101.151	50.0872	-27.9255	-119.422	24.4667	37.5757	-125.349	34.785	19.414	-125.841	44.941	0.342863	-104.185	19.697	75.9495	-102.021	11.5915	104.501	-69.1362	12.5753	88.6024	
